<svg width="207" height="70" viewBox="0 0 207 70" fill="none" xmlns="http://www.w3.org/2000/svg">
<path d="M64.5664 43.5353C57.1821 56.5763 51.7116 62.7689 37.4473 70.0002L26.6289 63.4953C42.9822 57.2745 51.0326 52.642 64.5664 43.5353Z" fill="white"/>
<path d="M64.9092 25.301C64.1907 32.7442 63.7714 36.9174 61.6289 44.3732C45.4438 53.0081 36.2624 57.7882 19.2871 65.9592C14.1815 61.9621 12.175 59.152 8.76172 54.0324C33.1036 46.4441 45.4353 40.21 64.9092 25.301Z" fill="white"/>
<path fill-rule="evenodd" clip-rule="evenodd" d="M170.619 41.9299C171.94 41.9299 173.165 42.1608 174.295 42.6222C175.425 43.0837 176.411 43.7284 177.255 44.5558C178.098 45.3674 178.751 46.3305 179.213 47.4445C179.69 48.5582 179.929 49.7754 179.929 51.0959C179.929 52.4007 179.69 53.6184 179.213 54.7482C178.735 55.8622 178.075 56.8338 177.231 57.6613C176.388 58.4887 175.401 59.1325 174.271 59.5939C173.158 60.0554 171.94 60.2863 170.619 60.2863C169.314 60.2863 168.097 60.0554 166.967 59.5939C165.837 59.1325 164.85 58.4887 164.007 57.6613C163.163 56.8338 162.503 55.8622 162.025 54.7482C161.564 53.6184 161.333 52.4007 161.333 51.0959C161.333 49.7754 161.564 48.5582 162.025 47.4445C162.487 46.3305 163.14 45.3589 163.983 44.5314C164.827 43.7041 165.814 43.0678 166.943 42.6222C168.073 42.1608 169.298 41.9299 170.619 41.9299ZM170.619 44.8898C169.76 44.8898 168.964 45.0416 168.232 45.3439C167.5 45.6463 166.856 46.0836 166.299 46.6564C165.758 47.2134 165.336 47.874 165.033 48.6379C164.731 49.3856 164.58 50.205 164.58 51.0959C164.58 51.9871 164.731 52.8154 165.033 53.5793C165.336 54.343 165.758 55.0028 166.299 55.5597C166.856 56.1167 167.5 56.5549 168.232 56.8732C168.964 57.1755 169.76 57.3263 170.619 57.3263C171.494 57.3263 172.298 57.1756 173.03 56.8732C173.762 56.5549 174.398 56.1167 174.939 55.5597C175.496 55.0028 175.919 54.343 176.205 53.5793C176.507 52.8154 176.658 51.9871 176.658 51.0959C176.658 50.205 176.507 49.3856 176.205 48.6379C175.919 47.874 175.496 47.2134 174.939 46.6564C174.398 46.0837 173.762 45.6463 173.03 45.3439C172.298 45.0416 171.494 44.8898 170.619 44.8898Z" fill="white"/>
<path d="M93.9648 50.1232L100.649 42.216H104.73L98.5625 49.5265L104.945 60.0002H101.126L96.3525 52.1701L93.9648 55.0109V60.0002H90.7188V42.216H93.9648V50.1232Z" fill="white"/>
<path fill-rule="evenodd" clip-rule="evenodd" d="M115.203 42.216C116.413 42.216 117.479 42.4393 118.402 42.8849C119.341 43.3145 120.073 43.951 120.598 44.7941C121.123 45.6216 121.386 46.6328 121.386 47.8263C121.386 49.0516 121.092 50.094 120.503 50.9533C119.93 51.8126 119.15 52.4487 118.163 52.8625L122.245 60.0002H118.569L114.896 53.4357H111.838V60.0002H108.591V42.216H115.203ZM111.838 50.5715H115.251C115.84 50.5715 116.349 50.4601 116.778 50.2375C117.208 49.9988 117.543 49.6717 117.781 49.258C118.02 48.8443 118.14 48.3672 118.14 47.8263C118.14 47.2694 118.02 46.7916 117.781 46.3937C117.543 45.98 117.208 45.6614 116.778 45.4386C116.349 45.2001 115.84 45.0812 115.251 45.0812H111.838V50.5715Z" fill="white"/>
<path fill-rule="evenodd" clip-rule="evenodd" d="M141.059 60.0002H137.525L136.261 56.1808H129.386L128.097 60.0002H124.588L130.723 42.216H134.924L141.059 60.0002ZM130.316 53.3166H135.33L132.823 45.8156L130.316 53.3166Z" fill="white"/>
<path d="M147.955 50.1232L154.639 42.216H158.721L152.553 49.5265L158.936 60.0002H155.116L150.343 52.1701L147.955 55.0109V60.0002H144.709V42.216H147.955V50.1232Z" fill="white"/>
<path d="M189.353 55.5793L192.805 42.216H196.171L199.599 55.5734L202.902 42.216H206.387L201.613 60.0002H197.89L194.476 47.215L191.062 60.0002H187.338L182.564 42.216H186.049L189.353 55.5793Z" fill="white"/>
<path d="M68.5312 5.3908C71.3768 11.2189 71.9061 14.8152 69.3633 22.2951C47.9845 34.9903 36.504 42.5543 11.8457 52.3566C8.21266 47.3711 6.70034 44.4694 5.97168 38.9025C30.9366 27.1733 44.8545 18.6989 68.5312 5.3908Z" fill="white"/>
<path d="M172.171 39.9006H169.092L170.643 35.7717H174.701L172.171 39.9006Z" fill="white"/>
<path d="M48.6572 0.90642C55.4165 2.74095 59.1629 3.81787 64.6152 7.16521C40.7431 19.789 26.8877 26.9385 1.86035 39.7404C0.567433 33.3782 0.160881 29.8285 0 23.5265C19.1358 14.1464 29.8767 8.83601 48.6572 0.90642Z" fill="white"/>
<path d="M124.615 11.9299C125.888 11.9299 127.027 12.1447 128.029 12.5744C129.048 13.004 129.906 13.5772 130.606 14.2931C131.307 14.9933 131.808 15.7652 132.11 16.6086L129.198 17.9689C128.864 17.0781 128.299 16.3464 127.504 15.7736C126.708 15.1848 125.745 14.8898 124.615 14.8898C123.501 14.8898 122.515 15.1528 121.655 15.6779C120.812 16.2031 120.151 16.9268 119.674 17.8498C119.212 18.7727 118.982 19.8548 118.981 21.0959C118.981 22.337 119.212 23.4275 119.674 24.3664C120.151 25.2894 120.812 26.0141 121.655 26.5392C122.515 27.0643 123.501 27.3263 124.615 27.3263C125.745 27.3263 126.708 27.0399 127.504 26.467C128.299 25.8782 128.864 25.1383 129.198 24.2472L132.11 25.6076C131.808 26.451 131.307 27.2313 130.606 27.9474C129.906 28.6474 129.047 29.2122 128.029 29.6418C127.027 30.0714 125.888 30.2863 124.615 30.2863C123.342 30.2863 122.164 30.0554 121.082 29.5939C120.016 29.1325 119.077 28.4886 118.266 27.6613C117.47 26.8338 116.849 25.8622 116.403 24.7482C115.958 23.6344 115.735 22.4165 115.735 21.0959C115.735 19.7753 115.95 18.5583 116.38 17.4445C116.825 16.3146 117.446 15.343 118.242 14.5314C119.054 13.7042 120 13.0677 121.082 12.6222C122.164 12.1607 123.342 11.9299 124.615 11.9299Z" fill="white"/>
<path d="M96.0508 25.5793L99.5029 12.216H102.869L106.297 25.5734L109.601 12.216H113.086L108.312 30.0002H104.588L101.174 17.214L97.7607 30.0002H94.0371L89.2627 12.216H92.748L96.0508 25.5793Z" fill="white"/>
<path fill-rule="evenodd" clip-rule="evenodd" d="M143.029 12.216C144.239 12.216 145.306 12.4393 146.229 12.8849C147.167 13.3146 147.9 13.9508 148.425 14.7941C148.95 15.6216 149.212 16.6328 149.212 17.8263C149.212 19.0516 148.918 20.094 148.329 20.9533C147.756 21.8126 146.976 22.4487 145.989 22.8625L150.071 30.0002H146.396L142.722 23.4357H139.664V30.0002H136.417V12.216H143.029ZM139.664 20.5715H143.077C143.666 20.5715 144.176 20.4603 144.605 20.2375C145.035 19.9988 145.369 19.6717 145.607 19.258C145.846 18.8443 145.966 18.3672 145.966 17.8263C145.966 17.2694 145.846 16.7916 145.607 16.3937C145.369 15.9801 145.035 15.6614 144.605 15.4386C144.176 15.1999 143.666 15.0812 143.077 15.0812H139.664V20.5715Z" fill="white"/>
<path d="M3.42676 7.16521C19.1542 0.421736 27.624 -0.674101 42.3428 0.314624L3.42676 21.4572V7.16521Z" fill="white"/>
</svg>
