<svg width="263" height="42" viewBox="0 0 263 42" fill="none" xmlns="http://www.w3.org/2000/svg">
<path d="M158.398 14.7637L162.077 24.4974H154.949L158.398 14.7637ZM157.019 11.5192L148.971 32.8402H151.961L154.03 27.0465H162.997L165.067 32.8402H168.056L160.009 11.5192H157.019ZM200.471 32.8402H203.23V11.5192H200.471V32.8402ZM172.183 20.3251C173.103 18.9343 174.941 17.7759 176.781 17.7759C180.46 17.7759 182.3 20.3251 182.3 24.0335V33.0717H179.541V24.4965C179.541 21.4834 177.932 20.326 175.863 20.326C173.563 20.326 171.954 22.6436 171.954 24.7289V32.8402H169.195V18.0083H171.954L172.184 20.326L172.183 20.3251ZM184.6 28.4373C184.6 25.1928 187.589 23.339 191.038 23.339C193.107 23.339 194.487 23.8029 194.946 24.2668V23.8029C194.946 21.4852 193.107 20.326 191.268 20.326C189.66 20.326 188.279 21.0213 187.819 22.4121L185.297 21.2519C185.757 19.8612 187.596 17.775 191.284 17.775C194.734 17.775 197.722 19.8612 197.722 24.0326V32.8393H195.193V30.7433H194.963C194.274 31.9017 192.664 33.2924 190.135 33.2924C187.146 33.2924 184.617 31.4387 184.617 28.4256M194.963 26.5718C194.963 26.5718 193.814 25.6441 191.514 25.6441C188.755 25.6441 187.605 27.2654 187.605 28.4247C187.605 30.0461 189.214 30.7424 190.594 30.7424C192.664 30.7424 194.963 28.8886 194.963 26.5718Z" fill="white"/>
<path fill-rule="evenodd" clip-rule="evenodd" d="M207.13 39.3275L210.349 31.6711L204.601 18.2299H207.36L211.728 28.4265L216.096 18.2299H218.855L209.89 39.3275H207.13ZM247.594 23.1066C246.904 21.251 245.295 20.0936 243.687 20.0936C241.387 20.0936 239.318 22.1797 239.318 25.1919C239.318 28.204 241.388 30.2902 243.687 30.2902C245.295 30.2902 246.906 29.1318 247.595 27.5095L249.895 28.9003C248.746 31.4495 246.445 33.0708 243.687 33.0708C239.778 33.0708 236.559 29.5939 236.559 25.1919C236.559 20.5565 239.778 17.312 243.687 17.312C246.445 17.312 248.745 18.9334 249.895 21.4825L247.595 23.1039L247.594 23.1066Z" fill="white"/>
<path d="M257.482 33.3032C261.16 33.3032 263 31.2171 263 28.6679C263 23.1057 254.953 25.191 254.953 21.9482C254.953 20.7898 255.873 20.0945 257.482 20.0945C259.09 20.0945 260.701 20.7898 261.391 21.9482L262.999 20.3269C262.079 19.1685 259.55 17.5462 257.251 17.5462C253.802 17.5462 251.964 19.6324 251.964 22.1815C251.964 27.5113 260.24 25.6585 260.24 28.4391C260.24 29.8299 259.32 30.7568 257.482 30.7568C255.644 30.7568 254.723 29.5984 253.804 28.4391L251.734 30.0605C253.114 31.4513 255.183 33.305 257.482 33.305V33.3032ZM231.271 32.8393H234.03V18.0083H231.271V32.8393Z" fill="white"/>
<path fill-rule="evenodd" clip-rule="evenodd" d="M232.421 10.8238C233.571 10.8238 234.26 11.7516 234.26 12.6776C234.26 13.836 233.34 14.5313 232.421 14.5313C231.503 14.5313 230.582 13.6036 230.582 12.6776C230.582 11.7516 231.503 10.8238 232.421 10.8238ZM228.513 30.5235L228.974 32.6097H226.215C223.686 32.6097 222.537 30.7559 222.537 27.9743V20.7898H219.778V18.0092H222.537V13.6063H225.295V18.0092H228.514V20.7898H225.295V28.4463C225.295 30.5325 226.904 30.5325 228.514 30.5325L228.513 30.5235Z" fill="white"/>
<path d="M59.0647 20.0936V23.5705H67.1119C66.8823 25.4243 66.1915 26.815 65.2728 27.741C64.1236 28.8994 62.2836 30.2902 59.0647 30.2902C54.2363 30.2902 50.3276 26.3503 50.3276 21.2519C50.3276 16.3851 54.2363 12.2137 59.0647 12.2137C61.8234 12.2137 63.6634 13.3721 65.0521 14.5313L67.3514 12.2137C65.2818 10.3599 62.7528 8.73674 59.0745 8.73674C52.408 8.73674 46.6592 14.2989 46.6592 21.0195C46.6592 27.7401 52.3981 33.3014 59.0656 33.3014C62.7438 33.3014 65.5034 32.1431 67.5731 29.8245C69.8724 27.5068 70.5623 24.4947 70.5623 21.9446C70.5623 21.2492 70.5623 20.3233 70.3326 19.8585H59.0727L59.0647 20.0936ZM79.5273 17.3219C75.1592 17.3219 71.7097 20.5665 71.7097 25.2018C71.7097 29.8371 75.1592 33.0808 79.5273 33.0808C83.8954 33.0808 87.3449 29.6038 87.3449 25.2018C87.3449 20.5665 83.8954 17.3219 79.5273 17.3219ZM79.5273 30.0677C77.228 30.0677 75.1592 27.9815 75.1592 25.2009C75.1592 22.4202 77.2289 20.3341 79.5273 20.3341C81.8258 20.3341 83.8954 22.1878 83.8954 25.2009C83.8954 28.2139 81.8258 30.0677 79.5273 30.0677ZM117.234 18.9433C116.313 18.0155 114.934 17.0895 112.865 17.0895C108.957 17.0895 105.508 20.5665 105.508 24.9694C105.508 29.3723 108.958 32.8484 112.865 32.8484C114.705 32.8484 116.315 31.9206 117.003 30.9946H117.233V32.153C117.233 35.166 115.624 36.7883 113.095 36.7883C111.025 36.7883 109.646 35.1669 109.186 34.0076L106.197 35.166C107.118 37.2522 109.416 39.8013 113.094 39.8013C117.232 39.8013 120.69 37.4837 120.69 31.4585V17.0913H117.471V18.9451L117.234 18.9433ZM113.325 30.0677C111.025 30.0677 109.187 27.9815 109.187 25.2009C109.187 22.4202 111.026 20.3341 113.325 20.3341C115.623 20.3341 117.462 22.4202 117.462 25.2009C117.462 27.9815 115.623 30.0677 113.325 30.0677ZM96.5405 17.3219C92.1723 17.3219 88.7229 20.5665 88.7229 25.2018C88.7229 29.8371 92.1723 33.0808 96.5405 33.0808C100.909 33.0808 104.358 29.6038 104.358 25.2018C104.588 20.5665 100.909 17.3219 96.5405 17.3219ZM96.5405 30.0677C94.2411 30.0677 92.1723 27.9815 92.1723 25.2009C92.1723 22.4202 94.242 20.3341 96.5405 20.3341C98.8389 20.3341 100.909 22.1878 100.909 25.2009C100.909 28.2139 98.8389 30.0677 96.5405 30.0677ZM123.211 8.97004H126.661V33.0717H123.211V8.97004ZM136.087 30.0587C134.248 30.0587 133.098 29.1309 132.178 27.741L142.754 23.3381L142.294 22.4103C141.604 20.5565 139.535 17.312 135.627 17.312C131.49 17.312 128.27 20.5565 128.27 25.1919C128.27 29.5948 131.72 33.0708 136.088 33.0708C139.766 33.0708 141.836 30.7532 142.754 29.5939L139.996 27.7401C139.075 29.1309 137.926 30.0587 136.087 30.0587ZM135.857 20.3251C137.237 20.3251 138.386 21.0204 138.846 22.1788L131.719 25.1919C131.719 21.7149 134.018 20.3251 135.856 20.3251H135.857Z" fill="white"/>
<path d="M26.0426 5.01136V36.5114C26.0426 40.036 28.4574 42 31.0143 42C33.3819 42 35.9861 40.3295 35.9861 36.5114V5.25C35.9861 2.01886 33.6186 0 31.0143 0C28.4101 0 26.0426 2.22648 26.0426 5.01136Z" fill="white"/>
<path d="M13.0213 21V36.5114C13.0213 40.036 15.4361 42 17.9931 42C20.3606 42 22.9648 40.3295 22.9648 36.5114V21.2386C22.9648 18.0075 20.5973 15.9886 17.9931 15.9886C15.3888 15.9886 13.0213 18.2151 13.0213 21Z" fill="white"/>
<path d="M4.97177 42C7.7176 42 9.94353 39.7563 9.94353 36.9886C9.94353 34.2209 7.7176 31.9773 4.97177 31.9773C2.22594 31.9773 0 34.2209 0 36.9886C0 39.7563 2.22594 42 4.97177 42Z" fill="white"/>
</svg>
