<svg width="161" height="27" viewBox="0 0 161 27" fill="none" xmlns="http://www.w3.org/2000/svg">
<path fill-rule="evenodd" clip-rule="evenodd" d="M43.0416 0L29.2908 27H16.4015L22.1338 15.8H21.8687C17.1636 22 10.0729 26.0667 0 27V15.9667C0 15.9667 6.46121 15.6 10.2385 11.5667H0V0H11.4976V9.53333H11.7627L16.4678 0H25.1821V9.46667H25.4472L30.2848 0H43.0416Z" fill="white"/>
<path d="M117.892 24.0333H121.603V2.63333H117.892V24.0333Z" fill="white"/>
<path fill-rule="evenodd" clip-rule="evenodd" d="M97.4814 23.8C98.2766 24.1333 99.105 24.3 99.9333 24.3C101.325 24.3 102.551 23.9667 103.611 23.3C104.705 22.6333 105.533 21.7 106.129 20.5C106.726 19.3 107.024 17.9667 107.024 16.4333C107.024 14.9 106.726 13.5667 106.096 12.3667C105.467 11.1667 104.638 10.2667 103.545 9.6C102.452 8.93333 101.192 8.6 99.8008 8.63333C98.9062 8.63333 98.0778 8.8 97.2494 9.16667C96.4211 9.5 95.7584 10 95.2282 10.6333C95.1951 10.6667 95.162 10.7333 95.0957 10.7667V2.63333H91.3846V24H95.0626V22C95.162 22.1333 95.2614 22.2333 95.3608 22.3333C95.9572 22.9667 96.653 23.4667 97.4814 23.8ZM101.259 20.3333C100.662 20.7 99.9664 20.9 99.1712 20.9C98.4091 20.9 97.6802 20.7 97.0506 20.3333C96.4211 19.9333 95.8909 19.4 95.5264 18.7333C95.162 18.0667 94.9632 17.3 94.9632 16.4333C94.9632 15.5667 95.1288 14.8 95.4933 14.1333C95.8578 13.4667 96.3879 12.9333 97.0175 12.5333C97.647 12.1667 98.376 11.9667 99.1381 11.9667C99.9002 11.9667 100.596 12.1333 101.226 12.5C101.855 12.8667 102.319 13.4 102.65 14.0667C102.982 14.7333 103.147 15.5 103.147 16.4C103.147 17.2667 102.982 18.0333 102.65 18.7333C102.352 19.4333 101.888 19.9667 101.259 20.3333Z" fill="white"/>
<path d="M48.4093 3.93333H52.6505L56.4279 17.8333L60.4703 3.93333H63.9825L68.3562 17.5667L72.001 3.93333H75.8778L70.1455 24.0333H66.5007L62.0607 10.7L57.9852 24.0333H54.3073L48.4093 3.93333Z" fill="white"/>
<path fill-rule="evenodd" clip-rule="evenodd" d="M82.107 24.3667C80.616 24.3667 79.2906 24.0333 78.1309 23.4C76.9381 22.7333 76.0434 21.8 75.3476 20.6C74.6849 19.4 74.3536 18.0333 74.3536 16.5333C74.3536 15.0333 74.6849 13.7 75.3807 12.5C76.0766 11.3 77.0043 10.3667 78.164 9.7C79.3569 9.03333 80.6491 8.7 82.107 8.7C83.7306 8.7 85.1554 9.06667 86.3814 9.8C87.6073 10.5333 88.5351 11.5667 89.1315 12.9C89.7611 14.2333 89.9599 15.7667 89.7942 17.4667H78.164C78.1972 18.1667 78.3628 18.7667 78.661 19.3333C78.9924 19.9667 79.4894 20.4333 80.0858 20.7667C80.7154 21.1 81.3781 21.3 82.1401 21.3C82.7034 21.3 83.2667 21.2 83.7637 21C84.2608 20.8 84.6915 20.5333 85.0228 20.2C85.3873 19.8667 85.6193 19.4667 85.7849 19.0667H89.6617C89.4297 20.1 88.9658 21.0333 88.2369 21.8667C87.5411 22.6667 86.6464 23.3 85.5861 23.7667C84.559 24.1667 83.3993 24.4 82.107 24.3667ZM78.6942 13.6667C78.4622 14.0333 78.3297 14.4667 78.2303 14.9H85.9506C85.8843 14.3333 85.7187 13.8333 85.4536 13.4C85.1222 12.8667 84.6915 12.4333 84.1282 12.1667C83.5649 11.8667 82.9354 11.7 82.2396 11.7C81.4775 11.7 80.8148 11.8667 80.1852 12.2333C79.5557 12.5667 79.0587 13.0333 78.6942 13.6667Z" fill="white"/>
<path d="M109.774 8.96667C109.774 7.73333 110.039 6.66667 110.603 5.73333C111.166 4.76667 111.928 4.03333 112.922 3.5C113.916 2.96667 115.109 2.7 116.434 2.66667V6C115.805 6 115.275 6.13333 114.844 6.4C114.413 6.63333 114.082 7 113.85 7.46667C113.618 7.9 113.518 8.4 113.485 8.96667H116.368V12.1333H113.485V24.0333H109.774V12.1333H107.389V8.96667H109.774Z" fill="white"/>
<path fill-rule="evenodd" clip-rule="evenodd" d="M131.013 24.3333C129.489 24.3333 128.164 24 126.971 23.3333C125.778 22.6667 124.85 21.7333 124.188 20.5333C123.525 19.3333 123.194 18 123.194 16.4667C123.194 14.9333 123.525 13.6 124.188 12.4C124.85 11.2 125.811 10.2667 126.971 9.6C128.164 8.93333 129.522 8.6 131.013 8.6C132.538 8.6 133.896 8.93333 135.089 9.6C136.282 10.2667 137.243 11.2 137.905 12.4C138.568 13.6 138.899 14.9667 138.932 16.4667C138.932 17.9667 138.568 19.3333 137.905 20.5333C137.243 21.7333 136.315 22.6333 135.122 23.3333C133.896 24 132.538 24.3333 131.013 24.3333ZM131.013 20.9333C131.809 20.9333 132.504 20.7667 133.134 20.4C133.764 20.0333 134.227 19.5 134.559 18.8333C134.89 18.1667 135.056 17.4 135.056 16.5333C135.056 15.6667 134.89 14.9 134.559 14.2C134.227 13.5333 133.764 13 133.134 12.6333C132.504 12.2667 131.809 12.0667 131.013 12.0667C130.218 12.0667 129.522 12.2667 128.926 12.6333C128.329 13 127.866 13.5 127.501 14.2C127.17 14.8667 127.004 15.6333 127.004 16.5333C127.004 17.4 127.17 18.1667 127.501 18.8333C127.832 19.5 128.329 20.0333 128.926 20.4C129.522 20.7333 130.218 20.9333 131.013 20.9333Z" fill="white"/>
<path d="M142.909 8.96667H138.767L143.24 24H146.852L149.801 14.4L152.981 24H156.527L161 8.96667H157.256L154.738 18.3333L151.921 8.96667H148.31L145.526 18.5333L142.909 8.96667Z" fill="white"/>
</svg>
